<?xml version="1.0" standalone="no"?>
<!DOCTYPE svg PUBLIC "-//W3C//DTD SVG 20010904//EN"
 "http://www.w3.org/TR/2001/REC-SVG-20010904/DTD/svg10.dtd">
<svg version="1.0" xmlns="http://www.w3.org/2000/svg"
 width="561.000000pt" height="561.000000pt" viewBox="0 0 561.000000 561.000000"
 preserveAspectRatio="xMidYMid meet">
<metadata>
Created by potrace 1.11, written by Peter Selinger 2001-2013
</metadata>
<g transform="translate(0.000000,561.000000) scale(0.100000,-0.100000)"
fill="#000000" stroke="none">
<path d="M2555 5604 c-16 -3 -79 -11 -140 -20 -484 -67 -998 -288 -1360 -584
-119 -97 -399 -384 -480 -490 -438 -580 -636 -1293 -560 -2018 49 -462 230
-935 509 -1327 133 -187 416 -475 608 -618 372 -278 855 -471 1331 -532 176
-22 526 -20 721 5 443 57 887 235 1280 514 105 75 376 331 504 476 216 246
441 672 541 1026 82 291 105 486 98 833 -5 269 -11 323 -58 541 -62 286 -208
641 -374 910 -73 118 -93 125 -165 57 -76 -70 -506 -654 -731 -993 -640 -962
-814 -1247 -1047 -1712 -47 -96 -104 -194 -125 -218 -22 -25 -129 -104 -250
-186 -117 -78 -277 -191 -357 -251 -149 -113 -240 -164 -298 -169 -33 -3 -35
0 -77 76 -24 43 -64 140 -90 215 -26 75 -87 226 -135 336 -48 110 -113 265
-146 345 -68 169 -251 538 -343 693 -143 238 -322 437 -528 585 -54 39 -111
87 -126 106 l-28 37 43 51 c94 113 414 366 537 425 67 33 86 37 190 43 110 7
196 5 269 -6 44 -7 132 -82 225 -193 191 -228 368 -547 498 -899 l53 -144 35
7 c47 8 82 48 178 205 42 69 109 168 148 220 39 52 91 124 115 160 24 36 106
148 182 250 76 102 167 224 202 271 116 157 395 496 503 611 58 62 159 174
224 249 64 75 159 180 209 235 108 116 148 164 183 220 l26 42 -45 46 c-57 60
-208 159 -376 246 -236 122 -415 192 -633 246 -250 62 -360 75 -650 79 -143 2
-273 1 -290 -1z"/>
</g>
</svg>
